<svg xmlns="http://www.w3.org/2000/svg"  viewBox="0 0 100 100" width="100px" height="100px" baseProfile="basic"><path fill="#815ea2" d="M13.938,69.098c3.217,0,3.223-5,0-5C10.721,64.098,10.715,69.098,13.938,69.098L13.938,69.098z"/><path fill="#815ea2" d="M66.175,77.743c3.217,0,3.223-5,0-5C62.957,72.743,62.952,77.743,66.175,77.743L66.175,77.743z"/><path fill="#815ea2" d="M91.822,63.709c-1.863-12.751-5.083-25.172-9.651-37.222c-0.104-0.274-0.236-0.523-0.384-0.756	c-1.192-3.061-3.94-5.289-6.716-6.937c-3.643-2.162-7.579-3.881-11.586-5.243c-0.256-0.087-0.519-0.106-0.778-0.092	c-0.033-0.012-0.064-0.027-0.098-0.039c-1.273-0.451-2.736,0.511-3.075,1.746c-0.38,1.383,0.469,2.622,1.746,3.075	c3.814,1.353,7.472,3.446,10.7,6.044c-5.563-2.176-11.724-3.173-17.599-3.608c-6.02-1.177-12.181-1.011-18.116,0.517	c-4.091,0.614-8.113,1.627-11.783,3.181c1.002-0.662,2.024-1.293,3.078-1.867c2.934-1.596,5.841-2.789,8.944-3.952	c1.264-0.473,2.127-1.69,1.746-3.075c-0.36-1.311-1.768-2.1-3.075-1.746c-6.615,1.792-13.529,3.886-18.423,8.961	c-0.363,0.377-0.586,0.848-0.672,1.339c-0.311,0.628-0.612,1.259-0.891,1.897c-0.068,0.099-0.132,0.203-0.183,0.321	c-4.464,10.171-7.559,20.846-9.069,31.856c-0.1,0.731,0.015,1.461,0.365,2.04c-0.426,1.694-0.666,3.429-0.741,5.176	c-0.526,0.77-0.553,1.74-0.114,2.648c0.63,1.302,1.708,2.265,2.897,3.084c3.661,3.429,8.037,6.063,12.78,7.725	c1.365,0.478,2.761,0.866,4.178,1.159c1.599,0.33,3.517,0.864,4.993-0.095c1.588-1.031,2.101-3.124,1.402-4.838	c-0.664-1.629-2.143-2.446-3.62-3.223c-1.649-0.868-3.265-1.81-4.834-2.822c-1.094-1.053-2.118-2.173-3.071-3.353	c1.406,0.763,2.829,1.387,4.035,1.872c6.894,2.773,14.382,4.103,21.804,4.176c7.429,0.073,14.905-1.118,22.02-3.221	c1.973-0.583,4.544-1.247,7.145-2.119c-3.119,2.657-6.546,4.934-10.254,6.785c-0.107,0.053-0.198,0.125-0.292,0.194	c-0.062,0.021-0.133,0.024-0.192,0.05c-0.995,0.437-1.401,1.246-1.537,2.285c-0.421,3.224,2.984,5.39,5.848,5.158	c2.81-0.228,5.655-1.584,8.21-2.699c4.848-2.116,9.435-5.108,12.802-9.237c0.324-0.398,0.547-0.85,0.649-1.316	C91.413,66.657,92.06,65.337,91.822,63.709z M28.138,75.397c0.01,0.001,0.02,0.001,0.03,0.002c0,0.002-0.02,0-0.031-0.001	C28.137,75.397,28.138,75.397,28.138,75.397z M27.171,77.012c-0.052,0.053-0.084,0.008-0.104-0.076	C27.133,76.977,27.175,77.007,27.171,77.012z"/><path fill="#f2f2f2" d="M61.208,53.545c4.504,0,4.512-7,0-7C56.704,46.545,56.697,53.545,61.208,53.545L61.208,53.545z"/><path fill="#f2f2f2" d="M38.704,44.071c-0.46-0.321-0.998-0.576-1.639-0.729c-3.578-0.855-6.631,1.911-7.821,5.039 c-1.201,3.158-0.823,7.111,1.788,9.457c2.666,2.395,6.617,2.299,9.091-0.314c2.479-2.62,3.62-7.345,1.841-10.602 C41.226,45.57,40.039,44.589,38.704,44.071z"/><path fill="#f2f2f2" d="M67.808,47.264c-1.197-3.93-5.844-6.397-8.992-3.956c-0.27,0.095-0.543,0.209-0.817,0.355 c-7.653,4.071-1.815,19.999,6.381,14.732C67.732,56.241,68.915,50.901,67.808,47.264z"/><g><path fill="none" d="M37.33,22.932c-4.3,0.647-8.52,1.737-12.333,3.433c1.176-0.808,2.39-1.562,3.644-2.244 c2.914-1.585,5.866-2.799,8.956-3.956c1.24-0.464,2.086-1.658,1.713-3.017c-0.353-1.286-1.734-2.06-3.017-1.713 C30.517,17,24.527,18.767,19.813,22.618c-4.522,3.694-6.072,10.174-7.673,15.508c-1.528,5.093-4.67,22.724-5.12,26.356 c-0.476,3.839-1.125,5.728,2.458,8.194c4.177,2.875,8.283,6.071,13.087,7.841c3.185,1.174,12.961,2.962,10.191-3.836 c-1.888-4.631-8.763-5.393-11.612-9.56c1.384,0.684,2.753,1.366,4.186,1.943c13.938,5.608,29.544,5.164,43.783,0.955 c2.049-0.606,4.747-1.299,7.454-2.223c-1.402,0.48-2.357,1.862-3.495,2.739c-2.248,1.732-9.413,4.168-9.142,7.709 c0.204,2.678,3.561,4.346,5.922,4.153c7.759-0.632,15.565-5.25,20.417-11.2c0.33-0.405,1.115-1.589,1.208-2.064 c0.979-0.864,1.608-2.156,1.375-3.747c-1.863-12.751-5.083-25.172-9.651-37.222c-0.09-0.236-0.199-0.457-0.322-0.663 c-1.168-3.1-3.932-5.35-6.729-7.01c-3.639-2.16-7.572-3.878-11.574-5.239c-0.254-0.086-0.515-0.105-0.773-0.09 c-0.035-0.012-0.068-0.028-0.103-0.041c-1.248-0.443-2.684,0.501-3.017,1.713c-0.373,1.356,0.46,2.572,1.713,3.017 c3.954,1.403,7.731,3.581,11.035,6.3"/><path d="M37.33,22.932c0,0-1.117,0.12-3.251,0.511c-2.123,0.414-5.298,1.073-9.183,2.695l0.241,0.431 c1.232-0.716,2.539-1.524,3.975-2.325c1.466-0.751,3.069-1.475,4.801-2.169c0.866-0.348,1.763-0.689,2.689-1.029 c0.479-0.181,0.9-0.312,1.446-0.534c0.532-0.247,1.032-0.622,1.387-1.146c0.763-1.039,0.652-2.653-0.292-3.634 c-0.461-0.489-1.083-0.834-1.77-0.946c-0.343-0.055-0.699-0.052-1.048,0.013c-0.356,0.072-0.573,0.142-0.868,0.213 c-4.407,1.159-9.34,2.451-14.008,5.375c-1.151,0.742-2.288,1.548-3.341,2.588c-1.037,1.029-1.921,2.22-2.672,3.491 c-1.505,2.55-2.497,5.389-3.395,8.258c-0.442,1.456-0.894,2.835-1.323,4.386c-0.408,1.51-0.753,3.029-1.105,4.571 c-0.686,3.081-1.331,6.238-1.962,9.469c-0.627,3.236-1.247,6.527-1.803,9.938c-0.124,0.853-0.248,1.71-0.373,2.571 c-0.117,0.865-0.257,1.781-0.215,2.846c0.01,1.055,0.422,2.3,1.097,3.207c0.674,0.909,1.475,1.556,2.266,2.12 c2.878,2.012,5.776,4.232,9.097,6.101c1.679,0.93,3.38,1.761,5.356,2.376c1.928,0.552,3.865,0.912,5.996,0.906 c1.067-0.033,2.195-0.11,3.437-0.698c0.609-0.295,1.261-0.78,1.708-1.479c0.454-0.695,0.629-1.51,0.638-2.21 c-0.003-0.697-0.126-1.318-0.292-1.884c-0.079-0.289-0.187-0.544-0.281-0.817c-0.114-0.271-0.257-0.544-0.39-0.815 c-0.574-1.06-1.366-1.972-2.217-2.682c-1.713-1.421-3.539-2.312-5.177-3.26c-1.64-0.933-3.1-1.942-3.97-3.199l-2.125,2.447 c6.423,3.356,13.973,5.433,21.684,6.065c3.067,0.278,6.13,0.282,9.156,0.134c3.027-0.147,6.022-0.486,8.957-1.008 c2.935-0.517,5.826-1.16,8.636-1.992c2.777-0.834,5.53-1.661,8.259-2.481l-1.055-3.088c-1.635,0.604-2.513,1.702-3.278,2.405 c-0.385,0.38-0.693,0.629-1.065,0.875c-0.415,0.262-0.869,0.525-1.352,0.788c-1.925,1.08-4.013,2.059-5.931,3.767 c-0.235,0.24-0.471,0.466-0.698,0.722c-0.216,0.293-0.448,0.537-0.636,0.879c-0.186,0.343-0.384,0.662-0.489,1.087 c-0.057,0.203-0.127,0.399-0.157,0.611c-0.019,0.217-0.032,0.437-0.039,0.656c-0.011,1.69,0.927,3.087,1.967,3.969 c1.063,0.896,2.264,1.449,3.55,1.725c0.646,0.134,1.313,0.208,2.026,0.151c0.577-0.066,1.13-0.127,1.69-0.207 c4.455-0.711,8.528-2.491,12.064-4.815c1.769-1.167,3.409-2.482,4.898-3.921c0.747-0.717,1.455-1.467,2.115-2.252l0.495-0.587 c0.182-0.212,0.36-0.471,0.503-0.683c0.306-0.475,0.551-0.835,0.852-1.505c0.009-0.022,0.017-0.045,0.022-0.067 c0.007-0.024,0.031-0.036,0.045-0.054c-0.021,0.018,0.135-0.135,0.214-0.234c0.095-0.108,0.184-0.22,0.269-0.337 c0.171-0.231,0.326-0.478,0.457-0.737c0.267-0.516,0.447-1.081,0.525-1.651c0.082-0.566,0.066-1.154-0.02-1.674l-0.212-1.3 c-0.28-1.728-0.589-3.429-0.915-5.103c-0.651-3.349-1.383-6.591-2.179-9.717c-1.591-6.253-3.438-12.041-5.388-17.331 c-0.488-1.327-0.978-2.605-1.487-3.883l-0.266-0.534c-0.024-0.035-0.106-0.223-0.176-0.389c-0.134-0.331-0.307-0.648-0.474-0.96 c-0.345-0.621-0.755-1.187-1.188-1.717c-1.762-2.107-3.953-3.512-6.037-4.662c-2.092-1.152-4.15-2.104-6.129-2.909 c-0.99-0.403-1.96-0.769-2.907-1.103c-0.475-0.162-0.943-0.322-1.403-0.48c-0.238-0.076-0.474-0.152-0.708-0.228 c-0.274-0.079-0.609-0.078-0.746-0.07c-0.115-0.049-0.4-0.118-0.636-0.129c-0.243-0.011-0.484,0.01-0.712,0.067 c-0.459,0.104-0.861,0.336-1.199,0.617c-0.684,0.558-1.064,1.449-1.001,2.277c0.055,0.84,0.526,1.575,1.133,2.01 c0.299,0.224,0.647,0.383,0.97,0.49c0.31,0.11,0.615,0.219,0.914,0.325c2.38,0.883,4.289,1.878,5.778,2.752 c1.492,0.874,2.563,1.64,3.276,2.158c0.711,0.521,1.06,0.804,1.06,0.804s-0.336-0.298-1.026-0.848 c-0.692-0.548-1.733-1.358-3.199-2.294c-1.463-0.936-3.347-2.011-5.725-2.991c-0.592-0.268-1.259-0.419-1.731-0.809 c-0.495-0.382-0.835-0.981-0.855-1.625c-0.085-1.275,1.366-2.665,2.836-2.044c0.325-0.007,0.47,0.007,0.654,0.062 c0.216,0.078,0.434,0.157,0.653,0.237c0.449,0.171,0.906,0.345,1.369,0.522c0.924,0.363,1.868,0.756,2.829,1.185 c1.922,0.858,3.912,1.859,5.92,3.05c1.997,1.181,4.01,2.587,5.526,4.52c0.371,0.483,0.718,0.991,0.998,1.536 c0.136,0.274,0.276,0.546,0.384,0.838c0.059,0.142,0.097,0.267,0.228,0.53l0.175,0.373c0.453,1.243,0.913,2.55,1.357,3.87 c1.785,5.293,3.463,11.066,4.888,17.28c0.713,3.107,1.362,6.323,1.934,9.642c0.285,1.659,0.555,3.344,0.796,5.053l0.183,1.286 c0.049,0.344,0.044,0.643-0.005,0.947c-0.047,0.301-0.146,0.586-0.292,0.853c-0.071,0.134-0.156,0.263-0.252,0.386 c-0.047,0.062-0.097,0.122-0.151,0.181c-0.064,0.072-0.065,0.075-0.247,0.248c-0.082,0.132-0.177,0.265-0.253,0.406 c-0.056,0.138-0.169,0.263-0.23,0.421c-0.123,0.203-0.387,0.672-0.629,1.004c-0.134,0.189-0.234,0.333-0.375,0.489l-0.463,0.528 c-0.616,0.706-1.278,1.382-1.977,2.028c-1.392,1.297-2.924,2.482-4.569,3.527c-3.285,2.083-7.04,3.637-10.993,4.208l-1.479,0.16 c-0.352,0.025-0.759-0.022-1.158-0.112c-0.805-0.176-1.609-0.578-2.19-1.088c-0.583-0.51-0.909-1.138-0.876-1.661 c-0.01-0.396,0.345-1.035,1.039-1.647c1.392-1.23,3.361-2.198,5.349-3.266c0.503-0.269,1.024-0.56,1.562-0.894 c0.573-0.364,1.137-0.832,1.558-1.244c0.853-0.835,1.552-1.495,2.1-1.655l-1.055-3.088c-2.682,0.784-5.389,1.574-8.118,2.372 c-2.703,0.783-5.479,1.383-8.291,1.866c-2.812,0.489-5.674,0.802-8.559,0.936c-2.884,0.135-5.796,0.129-8.702-0.136 c-7.322-0.607-14.382-2.524-20.484-5.67l-2.125,2.447c1.425,2.007,3.357,3.196,5.093,4.187c1.751,0.984,3.439,1.833,4.712,2.884 c0.636,0.522,1.116,1.1,1.466,1.72l0.24,0.479c0.061,0.18,0.146,0.367,0.192,0.539c0.109,0.35,0.162,0.676,0.17,0.934 c-0.05,0.501-0.073,0.567-0.543,0.851c-0.472,0.249-1.275,0.376-2.079,0.395c-1.639,0.03-3.427-0.264-5.067-0.72 c-1.579-0.467-3.23-1.226-4.756-2.053c-3.088-1.681-5.967-3.809-8.922-5.813c-0.657-0.448-1.241-0.936-1.622-1.437 c-0.362-0.51-0.557-0.986-0.59-1.675c-0.042-0.676,0.047-1.488,0.152-2.332c0.108-0.848,0.215-1.693,0.322-2.533 c0.485-3.346,1.044-6.657,1.604-9.88c0.564-3.226,1.141-6.381,1.754-9.444c0.315-1.526,0.624-3.041,0.982-4.499 c0.354-1.412,0.807-2.922,1.199-4.334c0.815-2.844,1.702-5.559,3.017-7.919c0.656-1.177,1.418-2.257,2.303-3.183 c0.872-0.913,1.923-1.712,2.982-2.433c4.293-2.865,9.07-4.296,13.418-5.576c0.257-0.071,0.583-0.175,0.779-0.219 c0.205-0.045,0.417-0.055,0.627-0.029c0.421,0.053,0.822,0.259,1.119,0.553c0.597,0.593,0.719,1.582,0.251,2.261 c-0.218,0.352-0.56,0.632-0.941,0.825c-0.39,0.175-0.919,0.369-1.361,0.552c-0.922,0.373-1.816,0.748-2.679,1.129 c-1.727,0.761-3.326,1.552-4.784,2.365c-1.431,0.864-2.727,1.733-3.943,2.502l0.241,0.431c3.774-1.738,6.91-2.52,9.009-3.016 C36.219,23.102,37.33,22.932,37.33,22.932z"/></g></svg>